{"title":"The Last Witch Hunter 2015 HD-TS x264","uid":12670240,"size":1712575962,"categoryP":"video","categoryS":"hd___movies","magnet":"?xt=urn:btih:a3c2dabcea936e93b47b0ca6daef6c9c672631d5&amp;dn=The+Last+Witch+Hunter+2015+HD-TS+x264&amp;tr=udp%3A%2F%2Ftracker.leechers-paradise.org%3A6969&amp;tr=udp%3A%2F%2Fzer0day.ch%3A1337&amp;tr=udp%3A%2F%2Fopen.demonii.com%3A1337&amp;tr=udp%3A%2F%2Ftracker.coppersurfer.tk%3A6969&amp;tr=udp%3A%2F%2Fexodus.desync.com%3A6969","seeders":0,"leechers":0,"uploader":"advertes","files":4,"time":1446435303,"description":"http://www.imagepearl.com/view/im1ug4pxd5\r\n&lt;a href=&quot;http://www.imagepearl.com/view/im1ug4pxd5&quot; target=&quot;_blank&quot;&gt;&lt;img src=&quot;http://www.imagepearl.com/images/2015/11/thumbnail/im1ug4pxd5.jpg&quot; alt=&quot;image&quot; /&gt;&lt;/a&gt;\r\n\r\nComplete name : The.Last.Witch.Hunter.2015.HD-TS.x264.AC3\r\nFormat : Matroska\r\nFormat version : Version 4 / Version 2\r\nFile size : 1.54 GiB\r\nDuration : 1h 36mn\r\nOverall bit rate : 2 278 Kbps\r\n\r\nVideo\r\nID : 1\r\nFormat : AVC\r\nFormat/Info : Advanced Video Codec\r\nFormat profile :   \r\nFormat settings, CABAC : Yes\r\nFormat settings, ReFrames : 4 frames\r\nCodec ID : V_MPEG4/ISO/AVC\r\nDuration : 1h 36mn\r\nBit rate : 2 020 Kbps\r\nWidth : 720 pixels\r\nHeight : 272 pixels\r\nDisplay aspect ratio : 2.647\r\nFrame rate mode : Constant\r\nFrame rate : 25.000 fps\r\nColor space : YUV\r\nChroma subsampling : 4:2:0\r\nBit depth : 8 bits\r\nScan type : Progressive\r\nBits/(Pixel*Frame) : 0.413\r\nStream size : 1.34 GiB (87%)\r\nWriting library : x264 core 148 r2638 7599210\r\nEncoding settings : cabac=1 / ref=5 / deblock=1:-3:-3 / analyse=0x3:0x133 / me=hex / subme=9 /\r\npsy=1 / psy_rd=1.00:0.80 / mixed_ref=1 / me_range=16 / chroma_me=1 / trellis=1 / 8x8dct=1 / cqm=0 / deadzone=21,11 /\r\nfast_pskip=1 / chroma_qp_offset=-4 / threads=8 / lookahead_threads=1 / sliced_threads=0 / nr=0 / decimate=1 /\r\ninterlaced=0 / bluray_compat=0 / constrained_intra=0 / bframes=5 / b_pyramid=1 / b_adapt=2 / b_bias=0 / direct=1 /\r\nweightb=1 / open_gop=0 / weightp=2 / keyint=250 / keyint_min=25 / scenecut=50 / intra_refresh=0 / rc_lookahead=50 /\r\nrc=2pass / mbtree=1 / bitrate=2020 / ratetol=1.0 / qcomp=0.60 / qpmin=0 / qpmax=69 / qpstep=4 / cplxblur=20.0 /\r\nqblur=0.5 / ip_ratio=1.40 / aq=1:1.50\r\nLanguage : English\r\nDefault : Yes\r\nForced : Yes\r\n\r\nAudio\r\nID : 2\r\nFormat : AC-3\r\nFormat/Info : Audio Coding 3\r\nMode extension : CM (complete main)\r\nFormat settings, Endianness : Big\r\nCodec ID : A_AC3\r\nDuration : 1h 36mn\r\nBit rate mode : Constant\r\nBit rate : 256 Kbps\r\nChannel(s) : 2 channels\r\nChannel positions : Front: L R\r\nSampling rate : 48.0 KHz\r\nCompression mode : Lossy\r\nStream size : 177 MiB (11%)\r\nLanguage : English\r\nDefault : Yes\r\nForced : Yes\r\nSource Video : The.Last.Witch.Hunter.2015.HD-TS.XVID.AC3.HQ.Hive-CM8\r\nSource Audio : The.Last.Witch.Hunter.2015.HD-TS.XVID.AC3.HQ.Hive-CM8\r\nGenre : Action, Adventure, Fantasy\r\nRelease Date : 10/23/2015\r\nSample Included : Yes\r\nImdb : http://www.imdb.com/title/tt1618442/\r\n\r\nFirst things first. Lets thank Hive-CM8 for this release of the Witch Hunter thanks guys we really appreciate it.\r\nOnto what we did to it. We adjusted the saturation and hues to eliminate the color cross talk.Then we went to work on\r\nthe pixelation, next it was the dark parts we brightened those up and toned down all the bright spots as much as we\r\ncould with out making it to dark again then some sharpness and grain to mantain details. Hope you all enjoy and\r\nas always check the samples there are 2 one from the dark area and one from the bright area as screens always look\r\nbetter.\r\n\r\n \nhttp://www.imagepearl.com/view/im1ug4qwex\r\n \nhttp://www.imagepearl.com/view/im1ug4qwet \nhttp://www.imagepearl.com/view/im1ug4qwev \nhttp://www.imagepearl.com/view/im1ug4qwew \nhttp://www.imagepearl.com/view/im1ug4qwez \nhttp://www.imagepearl.com/view/im1ug4qwf0 \nhttp://www.imagepearl.com/view/im1ug4qwf2 \nhttp://www.imagepearl.com/view/im1ug4qwf3 \nhttp://www.imagepearl.com/view/im1ug4qwf4 \nhttp://www.imagepearl.com/view/im1ug4qwf6 \nhttp://www.imagepearl.com/view/im1ug4r8el","torrent":{"xt":"urn:btih:a3c2dabcea936e93b47b0ca6daef6c9c672631d5","amp;dn":"The+Last+Witch+Hunter+2015+HD-TS+x264","amp;tr":["udp%3A%2F%2Ftracker.leechers-paradise.org%3A6969","udp%3A%2F%2Fzer0day.ch%3A1337","udp%3A%2F%2Fopen.demonii.com%3A1337","udp%3A%2F%2Ftracker.coppersurfer.tk%3A6969","udp%3A%2F%2Fexodus.desync.com%3A6969"],"infoHash":"a3c2dabcea936e93b47b0ca6daef6c9c672631d5","infoHashBuffer":{"type":"Buffer","data":[163,194,218,188,234,147,110,147,180,123,12,166,218,239,108,156,103,38,49,213]},"announce":[],"urlList":[]}}